<svg version="1.2" baseProfile="tiny-ps" xmlns="http://www.w3.org/2000/svg" viewBox="0 0 466 477" width="466" height="477">
	<title>Get in touch-bro-svg</title>
	<style>
		tspan { white-space:pre }
		.shp0 { fill: #4034eb } 
		.shp1 { opacity: 0.702;fill: #ffffff } 
		.shp2 { fill: #263238;stroke: #263238;stroke-linecap:round;stroke-linejoin:round } 
		.shp3 { fill: #ffffff;stroke: #263238;stroke-linecap:round;stroke-linejoin:round } 
		.shp4 { fill: #ffffff } 
		.shp5 { fill: #ffffff;stroke: #263238;stroke-linecap:round;stroke-linejoin:round;stroke-width: 0.704 } 
		.shp6 { fill: #263238 } 
		.shp7 { fill: #4034eb;stroke: #263238;stroke-linecap:round;stroke-linejoin:round } 
		.shp8 { fill: #263238;stroke: #263238 } 
		.shp9 { fill: none;stroke: #808080;stroke-linecap:round;stroke-linejoin:round } 
		.shp10 { fill: none;stroke: #263238;stroke-linecap:round;stroke-linejoin:round } 
		.shp11 { fill: #4034eb;stroke: #263238 } 
		.shp12 { fill: #ffffff;stroke: #263238 } 
	</style>
	<g id="freepik--background-simple--inject-2">
		<path id="Layer" class="shp0" d="M423.4 109.81C473.45 185.29 462 287.3 398.53 330.49C335.06 373.68 314.5 362.75 238.06 364.93C161.62 367.11 124.56 411.88 70.06 381.51C15.56 351.14 -2.24 284.53 28.69 219.06C59.62 153.59 95.65 71.85 167.05 30.67C238.45 -10.51 311.18 15.36 311.18 15.36C311.18 15.36 373.35 34.33 423.4 109.81Z" />
		<path id="Layer" class="shp1" d="M423.4 109.81C473.45 185.29 462 287.3 398.53 330.49C335.06 373.68 314.5 362.75 238.06 364.93C161.62 367.11 124.56 411.88 70.06 381.51C15.56 351.14 -2.24 284.53 28.69 219.06C59.62 153.59 95.65 71.85 167.05 30.67C238.45 -10.51 311.18 15.36 311.18 15.36C311.18 15.36 373.35 34.33 423.4 109.81Z" />
	</g>
	<g id="freepik--Plants--inject-2">
		<path id="Layer" class="shp0" d="M441.36 390.16C437.36 389.59 429.75 384.63 429.74 384.63C429.73 384.63 434.53 380.63 434.86 380.39C438.75 377.9 447.72 375.39 451.71 378.66C452.36 379.22 452.88 379.92 453.24 380.7C453.6 381.48 453.8 382.33 453.81 383.19C453.82 384.05 453.65 384.9 453.31 385.69C452.97 386.48 452.47 387.19 451.84 387.77C449.25 390.33 444.77 390.65 441.36 390.16Z" />
		<path id="Layer" class="shp0" d="M366.77 351.77C366.67 351.77 368.54 345.77 368.7 345.41C370.57 341.19 376.7 334.14 381.8 334.68C382.65 334.79 383.47 335.08 384.2 335.53C384.93 335.98 385.56 336.58 386.04 337.29C386.52 338 386.85 338.8 387.01 339.65C387.16 340.49 387.13 341.36 386.93 342.19C386.19 345.77 382.63 348.51 379.51 349.98C375.85 351.71 366.77 351.77 366.77 351.77Z" />
		<path id="Layer" class="shp0" d="M359.3 451.83C357.53 454.03 355.92 456.1 354.48 458L350.84 458C352.67 455.65 354.84 453 357.22 450.12C358.62 448.44 360.15 446.68 361.74 444.88C361.38 444.44 361.03 443.99 360.68 443.54C360.33 443.08 359.99 442.63 359.66 442.16C359.33 441.7 359 441.23 358.68 440.76C358.36 440.29 358.05 439.81 357.74 439.33C354.49 440.42 347.85 440.13 346.99 440.09C346.74 442.22 346.52 444.31 346.34 446.27C345.92 450.72 345.67 454.67 345.5 458L342.5 458C342.74 454.6 343.09 450.56 343.61 446C343.86 443.82 344.16 441.51 344.5 439.13C343.66 438.88 336.85 436.75 334.35 434.54C332.08 432.54 329.75 429.34 330 426.14C330.03 425.39 330.23 424.65 330.56 423.97C330.9 423.3 331.38 422.7 331.96 422.22C332.54 421.74 333.22 421.39 333.95 421.19C334.67 420.99 335.43 420.95 336.18 421.06C340.65 421.87 344.05 429.32 344.59 433.34C344.59 433.58 344.68 436.19 344.69 437.84C344.83 436.84 344.96 435.93 345.11 434.93C345.41 432.93 345.77 431 346.11 428.93C346.33 427.93 346.55 426.93 346.77 425.86C346.99 424.79 347.31 423.77 347.58 422.71C348.25 420.28 349.05 417.84 349.91 415.4C348.18 415.14 342.06 414.1 339.5 412.45C336.94 410.8 334.17 408.01 333.93 404.81C333.84 404.06 333.92 403.29 334.15 402.57C334.38 401.85 334.76 401.18 335.26 400.62C335.76 400.05 336.38 399.6 337.07 399.29C337.76 398.97 338.51 398.81 339.27 398.81C343.81 398.93 348.27 405.81 349.45 409.68C349.52 409.92 350.02 412.8 350.27 414.39C350.8 412.93 351.32 411.47 351.9 410.01C353.58 405.8 355.41 401.58 357.22 397.37C357.77 396.08 358.31 394.78 358.85 393.49C358.24 393.4 350.94 392.33 348.07 390.49C345.53 388.85 342.74 386.05 342.5 382.85C342.41 382.1 342.49 381.33 342.72 380.61C342.95 379.89 343.33 379.22 343.83 378.66C344.33 378.09 344.95 377.64 345.64 377.33C346.33 377.01 347.08 376.85 347.84 376.85C352.38 376.97 356.84 383.85 358.01 387.72C358.1 388.01 358.82 392.16 358.95 393.23C360.15 390.38 361.31 387.53 362.34 384.68C362.69 383.72 363.03 382.75 363.35 381.78C363.68 380.81 363.98 379.83 364.27 378.85C364.57 377.87 364.84 376.88 365.1 375.89C365.36 374.9 365.6 373.91 365.83 372.91C365.54 372.91 357.92 371.78 354.98 369.91C352.44 368.27 349.65 365.47 349.41 362.27C349.32 361.52 349.4 360.75 349.62 360.03C349.85 359.31 350.23 358.64 350.74 358.07C351.24 357.51 351.86 357.05 352.55 356.74C353.24 356.43 353.99 356.27 354.75 356.27C359.29 356.39 363.75 363.27 364.92 367.13C365 367.39 365.55 370.55 365.78 372.06L366.04 372.06C366.24 371.05 366.42 370.03 366.57 369.02C366.73 368 366.86 366.97 366.97 365.95C367.08 364.92 367.17 363.9 367.23 362.87C367.29 361.84 367.33 360.81 367.35 359.78C367.42 357.51 367.35 355.34 367.25 353.23C365.81 353.17 359.25 352.84 356.4 351.42C353.55 350 350.61 347.6 350.02 344.42C349.86 343.68 349.85 342.92 350.01 342.18C350.16 341.44 350.46 340.74 350.9 340.13C351.34 339.51 351.9 339 352.56 338.62C353.21 338.24 353.93 337.99 354.68 337.91C359.2 337.53 364.42 343.85 365.98 347.59C366.07 347.8 366.7 349.96 367.14 351.59C367.08 350.59 367.03 349.65 366.95 348.74C366.66 345.31 366.19 342.2 365.75 339.44C365.49 337.87 365.22 336.44 364.95 335.15C363.57 334.35 358.03 331.09 356.2 328.58C354.37 326.07 352.83 322.51 353.76 319.44C353.96 318.71 354.3 318.03 354.78 317.45C355.25 316.86 355.84 316.38 356.52 316.04C357.19 315.69 357.93 315.5 358.68 315.46C359.43 315.42 360.19 315.54 360.89 315.81C365.08 317.56 366.8 325.57 366.46 329.61C366.46 329.96 365.34 335.37 365.27 335.33L365.19 335.28C365.47 336.54 365.76 337.9 366.04 339.39C366.54 342.14 367.04 345.26 367.45 348.69C367.56 349.61 367.65 350.54 367.73 351.46C367.81 352.39 367.88 353.31 367.93 354.24C367.98 355.17 368.02 356.1 368.05 357.02C368.08 357.95 368.09 358.88 368.09 359.81C368.1 360.85 368.08 361.89 368.05 362.93C368.01 363.97 367.95 365.01 367.86 366.04C367.78 367.08 367.67 368.11 367.54 369.14C367.42 370.18 367.26 371.2 367.09 372.23C367.09 372.28 367.09 372.33 367.09 372.37C367.71 371.2 369.56 367.96 369.73 367.73C372.12 364.46 378.68 359.54 382.99 360.97C383.7 361.23 384.35 361.63 384.89 362.15C385.43 362.67 385.86 363.31 386.14 364.01C386.43 364.7 386.56 365.46 386.53 366.21C386.51 366.96 386.32 367.7 385.99 368.38C384.68 371.31 381.1 373 378.15 373.68C374.82 374.45 367.56 372.97 366.98 372.85C366.77 373.89 366.55 374.92 366.3 375.95C366.06 376.98 365.8 378.01 365.52 379.03C365.25 380.05 364.95 381.07 364.64 382.08C364.33 383.09 364 384.1 363.66 385.1C362.87 387.44 362 389.77 361.1 392.1C361.67 391.1 362.18 390.21 362.27 390.1C364.66 386.83 371.21 381.91 375.53 383.34C376.24 383.6 376.89 384 377.43 384.52C377.97 385.04 378.4 385.68 378.68 386.38C378.97 387.07 379.1 387.83 379.07 388.58C379.05 389.33 378.86 390.07 378.53 390.75C377.22 393.68 373.65 395.37 370.7 396.05C367.75 396.73 361.49 395.6 359.85 395.28C359.49 396.17 359.15 397.06 358.79 397.95C357.07 402.21 355.34 406.45 353.79 410.66C353.24 412.14 352.79 413.66 352.25 415.11C352.76 414.22 353.19 413.47 353.25 413.37C355.64 410.09 362.19 405.18 366.51 406.6C367.22 406.86 367.87 407.26 368.41 407.78C368.95 408.31 369.38 408.94 369.66 409.64C369.95 410.34 370.08 411.09 370.05 411.85C370.03 412.6 369.84 413.34 369.51 414.02C368.2 416.95 364.63 418.64 361.68 419.31C358.73 419.98 353.07 418.98 351.12 418.6C350.66 420.14 350.19 421.67 349.81 423.18C349.58 424.18 349.28 425.18 349.1 426.24C348.92 427.3 348.7 428.3 348.5 429.32C348.2 431.32 347.87 433.32 347.62 435.26C347.43 436.6 347.28 437.88 347.13 439.17C347.66 437.69 348.77 434.81 348.89 434.58C349.33 433.81 349.82 433.06 350.35 432.35C350.88 431.65 351.46 430.97 352.08 430.33C352.7 429.7 353.36 429.1 354.05 428.55C354.75 428 355.48 427.49 356.24 427.03C356.28 426.94 356.33 426.85 356.38 426.77C356.43 426.68 356.48 426.6 356.53 426.51C356.59 426.43 356.64 426.35 356.7 426.27C356.76 426.19 356.82 426.11 356.88 426.03C357.32 425.42 357.89 424.91 358.54 424.53C359.19 424.15 359.92 423.92 360.67 423.84C361.42 423.76 362.18 423.84 362.89 424.08C363.61 424.31 364.27 424.69 364.83 425.2C368.12 428.34 366.83 436.43 365.07 440.08C364.97 440.3 363.58 442.51 362.67 443.89C363.33 443.16 363.95 442.44 364.67 441.7C366.01 440.22 367.38 438.78 368.86 437.23L371.11 435.04C371.84 434.29 372.71 433.59 373.51 432.86C375.42 431.19 377.43 429.6 379.51 428.04C378.22 426.87 373.69 422.63 372.51 419.84C371.33 417.05 370.51 413.2 372.08 410.4C372.43 409.73 372.91 409.14 373.5 408.67C374.09 408.21 374.78 407.87 375.5 407.68C376.23 407.49 377 407.46 377.74 407.58C378.48 407.7 379.19 407.98 379.82 408.4C383.54 411.01 383.51 419.2 382.31 423.08C382.24 423.32 381.07 426 380.4 427.46C381.64 426.54 382.88 425.61 384.17 424.71C387.9 422.12 391.75 419.61 395.59 417.1L399.09 414.77C398.62 414.35 393.09 409.43 391.76 406.31C390.54 403.54 389.76 399.66 391.33 396.86C391.68 396.19 392.16 395.6 392.75 395.13C393.34 394.66 394.02 394.32 394.75 394.13C395.48 393.94 396.25 393.91 396.99 394.04C397.73 394.16 398.44 394.44 399.07 394.86C402.79 397.46 402.76 405.66 401.56 409.53C401.47 409.82 399.78 413.69 399.3 414.65C401.87 412.93 404.41 411.2 406.84 409.39C407.67 408.78 408.48 408.16 409.29 407.53C410.09 406.9 410.89 406.25 411.67 405.59C412.46 404.94 413.23 404.26 414 403.58C414.76 402.9 415.51 402.2 416.25 401.49C416.03 401.3 410.25 396.19 408.87 392.99C407.65 390.22 406.87 386.34 408.43 383.55C408.78 382.88 409.26 382.29 409.85 381.82C410.44 381.35 411.12 381.01 411.85 380.82C412.58 380.63 413.35 380.6 414.09 380.73C414.83 380.85 415.54 381.13 416.17 381.55C419.9 384.16 419.86 392.35 418.67 396.22C418.59 396.48 417.3 399.42 416.67 400.81C416.69 400.82 416.71 400.83 416.72 400.84C416.74 400.86 416.76 400.87 416.78 400.88C416.8 400.89 416.81 400.91 416.83 400.92C416.85 400.93 416.86 400.95 416.88 400.96C417.61 400.23 418.31 399.48 419.01 398.72C419.7 397.95 420.37 397.17 421.03 396.38C421.69 395.58 422.33 394.77 422.95 393.95C423.57 393.13 424.17 392.29 424.75 391.44C426.06 389.58 427.21 387.74 428.28 385.92C427.11 385.07 421.81 381.17 420.23 378.43C418.65 375.69 417.51 372.04 418.76 369.09C419.03 368.38 419.44 367.74 419.98 367.21C420.51 366.67 421.15 366.26 421.85 365.99C422.56 365.71 423.31 365.6 424.07 365.64C424.82 365.68 425.56 365.88 426.23 366.22C430.23 368.4 431.08 376.55 430.32 380.53C430.32 380.75 429.61 382.91 429.11 384.47C429.58 383.64 430.11 382.79 430.52 381.99C432.17 378.99 433.52 376.12 434.65 373.57C435.29 372.12 435.85 370.8 436.35 369.57C435.63 368.15 432.82 362.36 432.68 359.26C432.54 356.16 433.21 352.34 435.68 350.26C436.24 349.76 436.91 349.38 437.63 349.15C438.35 348.92 439.11 348.85 439.86 348.93C440.61 349.02 441.33 349.26 441.98 349.64C442.63 350.03 443.19 350.54 443.63 351.16C446.16 354.93 443.18 362.56 440.63 365.74C440.42 366.02 436.53 369.93 436.49 369.86L436.44 369.77C435.98 370.98 435.44 372.27 434.89 373.67C433.79 376.24 432.52 379.14 430.89 382.2C430.47 383.03 430.04 383.85 429.6 384.67C429.16 385.49 428.7 386.3 428.23 387.1C427.77 387.9 427.29 388.7 426.8 389.49C426.31 390.27 425.8 391.06 425.29 391.83C424.72 392.7 424.13 393.56 423.52 394.4C422.92 395.25 422.29 396.08 421.64 396.89C421 397.71 420.34 398.51 419.66 399.3C418.97 400.08 418.28 400.86 417.56 401.61C417.55 401.62 417.54 401.63 417.54 401.64C417.53 401.65 417.52 401.65 417.51 401.66C417.5 401.67 417.5 401.68 417.49 401.69C417.48 401.69 417.47 401.7 417.46 401.71C418.62 401.07 421.95 399.4 422.22 399.3C426.02 397.89 434.22 397.4 437.01 400.97C437.46 401.58 437.78 402.27 437.94 403.01C438.11 403.74 438.11 404.51 437.96 405.25C437.81 405.99 437.51 406.69 437.07 407.3C436.63 407.91 436.06 408.43 435.41 408.81C432.71 410.53 428.8 409.96 425.96 408.9C422.76 407.7 417.52 402.47 417.1 402.05C416.35 402.8 415.6 403.54 414.82 404.26C414.05 404.99 413.27 405.7 412.48 406.4C411.68 407.1 410.87 407.78 410.06 408.46C409.24 409.13 408.41 409.79 407.57 410.43C405.57 411.95 403.57 413.43 401.57 414.86C402.57 414.34 403.52 413.86 403.66 413.86C407.46 412.45 415.66 411.96 418.45 415.53C418.9 416.14 419.22 416.83 419.38 417.57C419.55 418.3 419.55 419.07 419.4 419.81C419.25 420.55 418.95 421.25 418.51 421.86C418.07 422.47 417.5 422.99 416.85 423.37C414.15 425.09 410.24 424.53 407.4 423.47C404.56 422.41 399.96 418.01 398.77 416.84C397.99 417.38 397.21 417.94 396.42 418.48C392.64 421.08 388.85 423.66 385.21 426.31C383.93 427.24 382.71 428.21 381.47 429.17C382.39 428.7 383.16 428.32 383.28 428.28C387.08 426.87 395.28 426.38 398.07 429.95C398.52 430.56 398.84 431.25 399 431.99C399.17 432.72 399.18 433.49 399.03 434.23C398.88 434.96 398.57 435.66 398.13 436.28C397.69 436.89 397.13 437.41 396.48 437.79C393.77 439.51 389.86 438.95 387.02 437.88C384.18 436.81 380.02 432.88 378.61 431.47C377.38 432.47 376.14 433.47 375 434.56C374.23 435.29 373.44 435.94 372.71 436.72L370.51 438.96C369.17 440.44 367.78 441.96 366.51 443.42C365.62 444.42 364.78 445.42 363.94 446.42C365.21 445.48 367.72 443.69 367.94 443.56C371.49 441.56 379.49 439.87 382.81 442.97C383.35 443.5 383.77 444.14 384.04 444.84C384.32 445.55 384.44 446.3 384.41 447.05C384.37 447.81 384.17 448.55 383.83 449.22C383.49 449.9 383.02 450.49 382.43 450.97C379.91 453 376 453 373 452.42C369.74 451.74 364 447.55 363.26 447.03C361.87 448.67 360.53 450.28 359.3 451.83Z" />
		<path id="Layer" class="shp0" d="M315.36 390.16C311.36 389.59 303.75 384.63 303.74 384.63C303.73 384.63 308.53 380.63 308.86 380.39C312.75 377.9 321.72 375.39 325.71 378.66C326.36 379.22 326.88 379.92 327.24 380.7C327.6 381.48 327.8 382.33 327.81 383.19C327.82 384.05 327.65 384.9 327.31 385.69C326.97 386.48 326.47 387.19 325.84 387.77C323.25 390.33 318.77 390.65 315.36 390.16Z" />
		<path id="Layer" class="shp0" d="M240.77 351.77C240.67 351.77 242.54 345.77 242.7 345.41C244.57 341.19 250.7 334.14 255.8 334.68C256.65 334.79 257.47 335.08 258.2 335.53C258.93 335.98 259.56 336.58 260.04 337.29C260.52 338 260.85 338.8 261.01 339.65C261.16 340.49 261.13 341.36 260.93 342.19C260.19 345.77 256.63 348.51 253.51 349.98C249.85 351.71 240.77 351.77 240.77 351.77Z" />
		<path id="Layer" class="shp0" d="M233.3 451.83C231.53 454.03 229.92 456.1 228.48 458L224.84 458C226.67 455.65 228.84 453 231.22 450.12C232.62 448.44 234.15 446.68 235.74 444.88C235.38 444.44 235.03 443.99 234.68 443.54C234.33 443.08 233.99 442.63 233.66 442.16C233.33 441.7 233 441.23 232.68 440.76C232.36 440.29 232.05 439.81 231.74 439.33C228.49 440.42 221.85 440.13 220.99 440.09C220.74 442.22 220.52 444.31 220.34 446.27C219.92 450.72 219.67 454.67 219.5 458L216.55 458C216.79 454.6 217.14 450.56 217.66 446C217.91 443.82 218.21 441.51 218.55 439.13C217.71 438.88 210.9 436.75 208.4 434.54C206.13 432.54 203.8 429.34 204.05 426.14C204.08 425.39 204.28 424.65 204.61 423.97C204.95 423.3 205.43 422.7 206.01 422.22C206.59 421.74 207.27 421.39 208 421.19C208.72 420.99 209.48 420.95 210.23 421.06C214.7 421.87 218.1 429.32 218.64 433.34C218.64 433.58 218.73 436.19 218.74 437.84C218.88 436.84 219.01 435.93 219.16 434.93C219.46 432.93 219.82 431 220.16 428.93C220.38 427.93 220.6 426.93 220.82 425.86C221.04 424.79 221.36 423.77 221.63 422.71C222.3 420.28 223.1 417.84 223.96 415.4C222.23 415.14 216.11 414.1 213.55 412.45C210.99 410.8 208.22 408.01 207.98 404.81C207.89 404.06 207.97 403.29 208.2 402.57C208.43 401.85 208.81 401.18 209.31 400.62C209.81 400.05 210.43 399.6 211.12 399.29C211.81 398.97 212.56 398.81 213.32 398.81C217.86 398.93 222.32 405.81 223.5 409.68C223.57 409.92 224.07 412.8 224.32 414.39C224.85 412.93 225.32 411.47 225.95 410.01C227.63 405.8 229.46 401.58 231.27 397.37C231.82 396.08 232.36 394.78 232.9 393.49C232.29 393.4 224.99 392.33 222.12 390.49C219.58 388.85 216.79 386.05 216.55 382.85C216.46 382.1 216.54 381.33 216.77 380.61C217 379.89 217.38 379.22 217.88 378.66C218.38 378.09 219 377.64 219.69 377.33C220.38 377.01 221.13 376.85 221.89 376.85C226.43 376.97 230.89 383.85 232.06 387.72C232.15 388.01 232.87 392.16 233 393.23C234.2 390.38 235.36 387.53 236.39 384.68C236.74 383.72 237.08 382.75 237.4 381.78C237.73 380.81 238.03 379.83 238.32 378.85C238.62 377.87 238.89 376.88 239.15 375.89C239.41 374.9 239.65 373.91 239.88 372.91C239.59 372.91 231.97 371.78 229.03 369.91C226.49 368.27 223.7 365.47 223.46 362.27C223.37 361.52 223.45 360.75 223.67 360.03C223.9 359.31 224.28 358.64 224.79 358.07C225.29 357.51 225.91 357.05 226.6 356.74C227.29 356.43 228.04 356.27 228.8 356.27C233.34 356.39 237.8 363.27 238.97 367.13C239.05 367.39 239.6 370.55 239.83 372.06L240.09 372.06C240.29 371.05 240.47 370.03 240.62 369.02C240.78 368 240.91 366.97 241.02 365.95C241.13 364.92 241.22 363.9 241.28 362.87C241.34 361.84 241.38 360.81 241.4 359.78C241.47 357.51 241.4 355.34 241.3 353.23C239.86 353.17 233.3 352.84 230.45 351.42C227.6 350 224.66 347.6 224.07 344.42C223.91 343.68 223.9 342.92 224.05 342.18C224.21 341.44 224.51 340.75 224.95 340.13C225.39 339.52 225.95 339 226.6 338.62C227.25 338.24 227.97 338 228.72 337.91C233.25 337.53 238.47 343.85 240.03 347.59C240.12 347.8 240.75 349.96 241.19 351.59C241.13 350.59 241.08 349.65 241 348.74C240.71 345.31 240.24 342.2 239.8 339.44C239.54 337.87 239.27 336.44 239 335.15C237.62 334.35 232.08 331.09 230.25 328.58C228.42 326.07 226.88 322.51 227.81 319.44C228.01 318.71 228.35 318.03 228.83 317.45C229.3 316.86 229.89 316.38 230.57 316.04C231.24 315.69 231.98 315.5 232.73 315.46C233.48 315.42 234.24 315.54 234.94 315.81C239.13 317.56 240.85 325.57 240.51 329.61C240.51 329.96 239.39 335.37 239.32 335.33L239.24 335.28C239.52 336.54 239.81 337.9 240.09 339.39C240.59 342.14 241.14 345.26 241.5 348.69C241.61 349.61 241.7 350.54 241.78 351.46C241.86 352.39 241.93 353.31 241.98 354.24C242.03 355.17 242.07 356.1 242.1 357.02C242.13 357.95 242.14 358.88 242.14 359.81C242.14 360.85 242.12 361.89 242.08 362.93C242.04 363.97 241.98 365.01 241.89 366.04C241.8 367.08 241.69 368.11 241.56 369.15C241.42 370.18 241.27 371.21 241.09 372.23C241.09 372.28 241.09 372.33 241.09 372.37C241.71 371.2 243.56 367.96 243.73 367.73C246.12 364.46 252.68 359.54 256.99 360.97C257.7 361.23 258.35 361.63 258.89 362.15C259.43 362.67 259.86 363.31 260.14 364.01C260.43 364.7 260.56 365.46 260.53 366.21C260.51 366.96 260.32 367.7 259.99 368.38C258.68 371.31 255.1 373 252.15 373.68C248.82 374.45 241.56 372.97 240.98 372.85C240.77 373.89 240.55 374.92 240.3 375.95C240.06 376.98 239.8 378.01 239.52 379.03C239.25 380.05 238.95 381.07 238.64 382.08C238.33 383.09 238 384.1 237.66 385.1C236.87 387.44 236 389.77 235.1 392.1C235.67 391.1 236.18 390.21 236.27 390.1C238.66 386.83 245.21 381.91 249.53 383.34C250.24 383.6 250.89 384 251.43 384.52C251.97 385.04 252.4 385.68 252.68 386.38C252.97 387.07 253.1 387.83 253.07 388.58C253.05 389.33 252.86 390.07 252.53 390.75C251.22 393.68 247.65 395.37 244.7 396.05C241.75 396.73 235.49 395.6 233.85 395.28C233.49 396.17 233.15 397.06 232.79 397.95C231.07 402.21 229.34 406.45 227.79 410.66C227.24 412.14 226.79 413.66 226.25 415.11C226.76 414.22 227.19 413.47 227.25 413.37C229.64 410.09 236.19 405.18 240.51 406.6C241.22 406.86 241.87 407.26 242.41 407.78C242.95 408.31 243.38 408.94 243.66 409.64C243.95 410.34 244.08 411.09 244.05 411.85C244.03 412.6 243.84 413.34 243.51 414.02C242.2 416.95 238.63 418.64 235.68 419.31C232.73 419.98 227.07 418.98 225.12 418.6C224.66 420.14 224.19 421.67 223.81 423.18C223.58 424.18 223.28 425.18 223.1 426.24C222.92 427.3 222.7 428.3 222.5 429.32C222.2 431.32 221.87 433.32 221.62 435.26C221.43 436.6 221.28 437.88 221.13 439.17C221.66 437.69 222.77 434.81 222.89 434.58C223.33 433.81 223.82 433.06 224.35 432.35C224.88 431.65 225.46 430.97 226.08 430.33C226.7 429.7 227.36 429.1 228.05 428.55C228.75 428 229.48 427.49 230.24 427.03C230.28 426.94 230.33 426.85 230.38 426.77C230.43 426.68 230.48 426.6 230.53 426.51C230.59 426.43 230.64 426.35 230.7 426.27C230.76 426.19 230.82 426.11 230.88 426.03C231.32 425.41 231.89 424.89 232.55 424.51C233.21 424.13 233.94 423.89 234.69 423.81C235.45 423.73 236.21 423.82 236.94 424.06C237.66 424.3 238.32 424.69 238.88 425.2C242.17 428.34 240.88 436.43 239.12 440.08C239.02 440.3 237.63 442.51 236.72 443.89C237.38 443.16 238 442.44 238.72 441.7C240.06 440.22 241.43 438.78 242.91 437.23L245.16 435.04C245.89 434.29 246.76 433.59 247.56 432.86C249.47 431.19 251.48 429.6 253.56 428.04C252.27 426.87 247.74 422.63 246.56 419.84C245.38 417.05 244.56 413.2 246.13 410.4C246.48 409.73 246.96 409.14 247.55 408.67C248.14 408.21 248.83 407.87 249.55 407.68C250.28 407.49 251.05 407.46 251.79 407.58C252.53 407.7 253.24 407.98 253.87 408.4C257.59 411.01 257.56 419.2 256.36 423.08C256.29 423.32 255.12 426 254.45 427.46C255.69 426.54 256.93 425.61 258.22 424.71C261.95 422.12 265.8 419.61 269.64 417.1L273.14 414.77C272.67 414.35 267.14 409.43 265.81 406.31C264.59 403.54 263.81 399.66 265.38 396.86C265.73 396.19 266.21 395.6 266.8 395.13C267.39 394.66 268.07 394.32 268.8 394.13C269.53 393.94 270.3 393.91 271.04 394.04C271.78 394.16 272.49 394.44 273.12 394.86C276.84 397.46 276.81 405.66 275.61 409.53C275.52 409.82 273.83 413.69 273.35 414.65C275.92 412.93 278.46 411.2 280.89 409.39C281.72 408.78 282.53 408.16 283.34 407.53C284.14 406.9 284.94 406.25 285.72 405.59C286.51 404.94 287.28 404.26 288.05 403.58C288.81 402.9 289.56 402.2 290.3 401.49C290.08 401.3 284.3 396.19 282.92 392.99C281.7 390.22 280.92 386.34 282.48 383.55C282.83 382.88 283.31 382.29 283.9 381.82C284.49 381.35 285.17 381.01 285.9 380.82C286.63 380.63 287.4 380.6 288.14 380.73C288.88 380.85 289.59 381.13 290.22 381.55C293.95 384.16 293.91 392.35 292.72 396.22C292.64 396.48 291.35 399.42 290.72 400.81C290.74 400.82 290.76 400.83 290.77 400.84C290.79 400.86 290.81 400.87 290.83 400.88C290.85 400.89 290.86 400.91 290.88 400.92C290.9 400.93 290.91 400.95 290.93 400.96C291.66 400.23 292.36 399.48 293.06 398.72C293.75 397.95 294.42 397.17 295.08 396.38C295.74 395.58 296.38 394.77 297 393.95C297.62 393.13 298.22 392.29 298.8 391.44C300.11 389.58 301.26 387.74 302.33 385.92C301.16 385.07 295.86 381.17 294.28 378.43C292.7 375.69 291.56 372.04 292.81 369.09C293.08 368.38 293.49 367.74 294.03 367.21C294.56 366.67 295.2 366.26 295.9 365.99C296.61 365.71 297.36 365.6 298.12 365.64C298.87 365.68 299.61 365.88 300.28 366.22C304.28 368.4 305.13 376.55 304.37 380.53C304.37 380.75 303.66 382.91 303.16 384.47C303.63 383.64 304.16 382.79 304.57 381.99C306.22 378.99 307.57 376.12 308.7 373.57C309.34 372.12 309.9 370.8 310.4 369.57C309.68 368.15 306.87 362.36 306.73 359.26C306.59 356.16 307.26 352.34 309.73 350.26C310.29 349.76 310.96 349.38 311.68 349.15C312.4 348.92 313.16 348.85 313.91 348.93C314.66 349.02 315.38 349.26 316.03 349.64C316.68 350.03 317.24 350.54 317.68 351.16C320.21 354.93 317.23 362.56 314.68 365.74C314.47 366.02 310.58 369.93 310.54 369.86L310.49 369.77C310.03 370.98 309.49 372.27 308.94 373.67C307.84 376.24 306.57 379.14 304.94 382.2C304.52 383.03 304.09 383.85 303.65 384.67C303.21 385.49 302.75 386.3 302.28 387.1C301.82 387.9 301.34 388.7 300.85 389.49C300.36 390.27 299.85 391.06 299.34 391.83C298.77 392.7 298.18 393.56 297.57 394.4C296.97 395.25 296.34 396.08 295.69 396.89C295.05 397.71 294.39 398.51 293.71 399.3C293.02 400.08 292.33 400.86 291.61 401.61C291.6 401.62 291.59 401.63 291.59 401.64C291.58 401.65 291.57 401.65 291.56 401.66C291.55 401.67 291.55 401.68 291.54 401.69C291.53 401.69 291.52 401.7 291.51 401.71C292.67 401.07 296 399.4 296.27 399.3C300.07 397.89 308.27 397.4 311.06 400.97C311.51 401.58 311.83 402.27 311.99 403.01C312.16 403.74 312.16 404.51 312.01 405.25C311.86 405.99 311.56 406.69 311.12 407.3C310.68 407.91 310.11 408.43 309.46 408.81C306.76 410.53 302.85 409.96 300.01 408.9C296.81 407.7 291.57 402.47 291.15 402.05C290.4 402.8 289.65 403.54 288.87 404.26C288.1 404.99 287.32 405.7 286.53 406.4C285.73 407.1 284.92 407.78 284.11 408.46C283.29 409.13 282.46 409.79 281.62 410.43C279.62 411.95 277.62 413.43 275.62 414.86C276.62 414.34 277.57 413.86 277.71 413.86C281.51 412.45 289.71 411.96 292.5 415.53C292.95 416.14 293.27 416.83 293.43 417.57C293.6 418.3 293.6 419.07 293.45 419.81C293.3 420.55 293 421.25 292.56 421.86C292.12 422.47 291.55 422.99 290.9 423.37C288.2 425.09 284.29 424.53 281.45 423.47C278.61 422.41 274.01 418.01 272.82 416.84C272.04 417.38 271.26 417.94 270.47 418.48C266.69 421.08 262.9 423.66 259.26 426.31C257.98 427.24 256.76 428.21 255.52 429.17C256.44 428.7 257.21 428.32 257.33 428.28C261.13 426.87 269.33 426.38 272.12 429.95C272.57 430.56 272.89 431.25 273.05 431.99C273.22 432.72 273.23 433.49 273.08 434.23C272.93 434.96 272.62 435.66 272.18 436.28C271.74 436.89 271.18 437.41 270.53 437.79C267.82 439.51 263.91 438.95 261.07 437.88C258.23 436.81 254.07 432.88 252.66 431.47C251.43 432.47 250.19 433.47 249.05 434.56C248.28 435.29 247.49 435.94 246.76 436.72L244.56 438.96C243.22 440.44 241.83 441.96 240.56 443.42C239.67 444.42 238.83 445.42 237.99 446.42C239.26 445.48 241.77 443.69 241.99 443.56C245.54 441.56 253.54 439.87 256.86 442.97C257.4 443.5 257.82 444.14 258.09 444.84C258.37 445.55 258.49 446.3 258.46 447.05C258.42 447.81 258.22 448.55 257.88 449.22C257.54 449.9 257.07 450.49 256.48 450.97C253.91 453 250 453 247 452.42C243.74 451.74 238 447.55 237.26 447.03C235.87 448.67 234.53 450.28 233.3 451.83Z" />
		<path id="Layer" class="shp0" d="M26 395.6C25.44 395.08 24.99 394.45 24.69 393.75C24.39 393.05 24.24 392.3 24.25 391.53C24.26 390.77 24.43 390.02 24.75 389.32C25.06 388.63 25.53 388.01 26.1 387.51C29.68 384.59 37.65 386.84 41.1 389.05C41.4 389.24 45.65 392.81 45.65 392.81C45.65 392.81 38.89 397.22 35.33 397.73C32.3 398.17 28.32 397.88 26 395.6Z" />
		<path id="Layer" class="shp0" d="M90.29 362.03C87.52 360.72 84.35 358.28 83.69 355.11C83.51 354.37 83.48 353.6 83.62 352.85C83.76 352.1 84.05 351.38 84.48 350.75C84.91 350.12 85.47 349.59 86.12 349.19C86.77 348.79 87.49 348.53 88.25 348.43C92.82 347.97 98.23 354.22 99.89 357.97C100.03 358.29 101.69 363.62 101.61 363.62C101.6 363.62 93.54 363.56 90.29 362.03Z" />
		<path id="Layer" class="shp0" d="M104.97 448.21C104.31 448.68 99.21 452.39 96.31 453C93.68 453.55 90.17 453.52 88.02 451.65C87.5 451.23 87.08 450.7 86.77 450.1C86.47 449.5 86.3 448.85 86.27 448.18C86.24 447.51 86.35 446.84 86.59 446.21C86.83 445.59 87.2 445.02 87.68 444.55C90.63 441.79 97.74 443.32 100.89 445.07C101.09 445.18 103.33 446.77 104.45 447.61C103.71 446.73 102.97 445.85 102.17 444.95C101.04 443.61 99.8 442.26 98.61 440.95L96.61 438.95C96 438.26 95.3 437.68 94.61 437.03C93.59 436.1 92.5 435.19 91.4 434.28C90.14 435.52 86.45 439.06 83.93 439.98C81.41 440.9 77.93 441.43 75.53 439.9C74.95 439.56 74.44 439.1 74.05 438.56C73.65 438.01 73.38 437.38 73.24 436.72C73.11 436.06 73.12 435.38 73.27 434.72C73.42 434.06 73.7 433.44 74.11 432.9C76.61 429.72 83.87 430.16 87.25 431.41C87.36 431.45 88.05 431.79 88.86 432.2C87.76 431.35 86.67 430.49 85.53 429.66C82.25 427.31 78.89 425.02 75.53 422.71L73.44 421.25C72.38 422.29 68.29 426.21 65.77 427.13C63.25 428.05 59.78 428.58 57.37 427.05C56.79 426.71 56.28 426.25 55.89 425.7C55.5 425.15 55.22 424.53 55.09 423.87C54.96 423.21 54.97 422.52 55.12 421.87C55.27 421.21 55.55 420.59 55.96 420.05C58.45 416.87 65.72 417.31 69.1 418.56C69.22 418.6 70.04 419.01 70.95 419.47C69.14 418.19 67.36 416.89 65.63 415.54C64.88 414.97 64.14 414.38 63.42 413.79C62.69 413.19 61.97 412.58 61.26 411.96C60.56 411.34 59.86 410.71 59.17 410.06C58.49 409.41 57.81 408.76 57.15 408.09C56.78 408.47 52.13 413.12 49.28 414.18C46.76 415.1 43.29 415.63 40.88 414.1C40.3 413.76 39.79 413.3 39.4 412.75C39.01 412.2 38.74 411.58 38.6 410.92C38.47 410.26 38.48 409.57 38.63 408.92C38.78 408.26 39.06 407.64 39.47 407.1C41.97 403.93 49.23 404.36 52.61 405.62C52.84 405.71 55.84 407.2 56.84 407.77L56.74 407.67C56.1 407 55.48 406.32 54.88 405.62C54.28 404.92 53.69 404.21 53.11 403.48C52.54 402.76 51.99 402.02 51.45 401.27C50.91 400.52 50.39 399.76 49.88 398.99C49.42 398.3 48.97 397.61 48.54 396.91C48.1 396.2 47.67 395.5 47.26 394.78C46.84 394.07 46.43 393.35 46.04 392.62C45.64 391.9 45.25 391.17 44.88 390.43C43.47 387.71 42.37 385.14 41.37 382.85C40.85 381.61 40.39 380.46 39.98 379.39L39.98 379.46C39.94 379.53 36.49 376.05 36.29 375.81C34.06 372.94 31.41 366.16 33.66 362.81C34.05 362.26 34.55 361.8 35.12 361.46C35.7 361.12 36.35 360.91 37.01 360.83C37.68 360.76 38.35 360.82 38.99 361.03C39.63 361.23 40.22 361.56 40.72 362.01C42.91 363.87 43.52 367.25 43.39 370.01C43.26 372.77 40.76 377.91 40.12 379.17C40.57 380.28 41.06 381.46 41.64 382.75C42.66 385.01 43.84 387.55 45.3 390.22C45.69 390.94 46.14 391.69 46.56 392.43C46.11 391.04 45.48 389.12 45.48 388.93C44.8 385.39 45.58 378.15 49.12 376.22C49.72 375.91 50.37 375.74 51.04 375.7C51.71 375.66 52.38 375.77 53 376.01C53.63 376.25 54.2 376.62 54.67 377.09C55.14 377.56 55.51 378.13 55.75 378.76C56.86 381.38 55.86 384.63 54.45 387.06C53.04 389.49 48.29 392.96 47.29 393.71C48.25 395.33 49.27 396.97 50.43 398.62C50.95 399.37 51.48 400.12 52.04 400.85C52.59 401.58 53.16 402.3 53.74 403C54.32 403.71 54.92 404.4 55.54 405.08C56.15 405.76 56.79 406.42 57.43 407.07C57.45 407.06 57.46 407.05 57.48 407.04C57.49 407.03 57.51 407.02 57.53 407.01C57.54 407 57.56 406.99 57.57 406.97C57.59 406.96 57.6 406.95 57.62 406.94C57.05 405.71 55.91 403.1 55.84 402.87C54.77 399.47 54.75 392.19 58.05 389.87C58.61 389.5 59.24 389.25 59.9 389.14C60.57 389.04 61.24 389.07 61.89 389.24C62.54 389.41 63.15 389.71 63.67 390.13C64.19 390.55 64.62 391.07 64.93 391.67C66.32 394.16 65.63 397.6 64.54 400.06C63.3 402.91 58.18 407.45 57.99 407.62C58.65 408.25 59.31 408.87 59.99 409.47C60.67 410.08 61.35 410.67 62.05 411.26C62.75 411.84 63.45 412.41 64.17 412.97C64.88 413.53 65.61 414.08 66.34 414.62C68.51 416.23 70.76 417.77 73.04 419.29C72.62 418.44 71.12 415.01 71.04 414.75C69.97 411.35 69.95 404.07 73.25 401.75C73.81 401.38 74.44 401.14 75.1 401.03C75.76 400.92 76.44 400.95 77.09 401.12C77.74 401.29 78.34 401.59 78.87 402.01C79.39 402.43 79.82 402.95 80.13 403.55C81.52 406.04 80.82 409.48 79.74 411.95C78.53 414.72 73.64 419.09 73.23 419.46C74.27 420.15 75.34 420.85 76.34 421.53C79.75 423.77 83.17 425.99 86.48 428.29C87.63 429.09 88.73 429.92 89.84 430.74C89.24 429.44 88.2 427.06 88.13 426.84C87.07 423.44 87.04 416.16 90.35 413.84C90.91 413.47 91.54 413.23 92.2 413.12C92.86 413.01 93.54 413.04 94.19 413.21C94.84 413.38 95.44 413.68 95.97 414.1C96.49 414.52 96.92 415.04 97.23 415.64C98.62 418.13 97.93 421.57 96.84 424.04C95.75 426.51 91.73 430.32 90.58 431.32C92.41 432.71 94.2 434.12 95.89 435.6C96.61 436.25 97.38 436.87 98.03 437.54L100.03 439.48C101.35 440.89 102.57 442.17 103.76 443.48L105.51 445.48C104.7 444.25 103.47 442.29 103.37 442.1C101.8 438.88 100.67 431.67 103.59 428.88C104.09 428.43 104.67 428.09 105.31 427.88C105.95 427.67 106.62 427.6 107.29 427.67C107.95 427.74 108.6 427.95 109.18 428.28C109.76 428.62 110.27 429.07 110.66 429.61C110.71 429.68 110.77 429.75 110.82 429.82C110.87 429.9 110.92 429.97 110.96 430.05C111.01 430.12 111.05 430.2 111.1 430.27C111.14 430.35 111.18 430.43 111.22 430.51C111.9 430.92 112.55 431.37 113.16 431.86C113.78 432.35 114.37 432.88 114.92 433.44C115.47 434.01 115.98 434.61 116.46 435.24C116.93 435.87 117.36 436.53 117.75 437.22C117.86 437.42 118.84 439.98 119.32 441.3C119.18 440.15 119.05 439.01 118.88 437.82C118.66 436.1 118.37 434.3 118.1 432.55C117.92 431.64 117.73 430.75 117.57 429.81C117.41 428.87 117.14 428 116.93 427.09C116.6 425.75 116.18 424.39 115.77 423.03C114.03 423.36 109.05 424.27 106.39 423.66C103.73 423.05 100.55 421.55 99.39 418.95C99.1 418.35 98.93 417.69 98.91 417.02C98.88 416.35 99 415.68 99.25 415.06C99.5 414.44 99.88 413.88 100.36 413.41C100.85 412.95 101.42 412.59 102.05 412.36C105.83 411.08 111.7 415.45 113.83 418.36C113.9 418.46 114.29 419.12 114.74 419.91C114.29 418.59 113.86 417.27 113.36 415.96C111.97 412.21 110.43 408.45 108.9 404.66C108.58 403.88 108.27 403.08 107.96 402.29C106.5 402.58 100.99 403.57 98.32 402.97C95.65 402.37 92.48 400.87 91.32 398.27C91.03 397.67 90.86 397.01 90.84 396.34C90.81 395.67 90.93 395 91.18 394.38C91.43 393.76 91.81 393.2 92.29 392.73C92.78 392.27 93.35 391.91 93.98 391.68C97.81 390.4 103.63 394.77 105.76 397.68C105.76 397.78 106.25 398.58 106.76 399.46C105.96 397.4 105.19 395.33 104.49 393.25C104.18 392.36 103.88 391.47 103.6 390.57C103.32 389.67 103.06 388.76 102.81 387.86C102.56 386.95 102.32 386.03 102.1 385.12C101.88 384.2 101.68 383.28 101.49 382.36C100.98 382.47 94.57 383.78 91.57 383.1C88.9 382.49 85.73 381 84.57 378.39C84.28 377.79 84.11 377.13 84.09 376.46C84.06 375.79 84.18 375.12 84.43 374.5C84.68 373.88 85.06 373.32 85.54 372.85C86.03 372.39 86.6 372.03 87.23 371.8C91.01 370.53 96.88 374.9 99.01 377.8C99.16 378.01 100.8 380.93 101.35 381.93L101.35 381.8C101.19 380.89 101.05 379.98 100.94 379.07C100.82 378.15 100.72 377.24 100.64 376.32C100.56 375.4 100.51 374.48 100.47 373.56C100.43 372.64 100.42 371.72 100.42 370.8C100.42 369.97 100.43 369.15 100.45 368.32C100.48 367.5 100.51 366.67 100.56 365.85C100.61 365.02 100.67 364.2 100.74 363.38C100.81 362.55 100.89 361.73 100.99 360.91C101.31 357.87 101.79 355.1 102.24 352.65C102.49 351.33 102.75 350.12 103 349L102.83 349.05C102.83 349.08 101.83 344.27 101.83 343.96C101.57 340.37 103.1 333.26 106.83 331.7C107.46 331.46 108.12 331.35 108.79 331.39C109.46 331.43 110.12 331.6 110.71 331.91C111.31 332.21 111.84 332.64 112.26 333.16C112.68 333.68 112.99 334.28 113.16 334.93C113.99 337.66 112.61 340.82 110.99 343.05C109.37 345.28 104.45 348.18 103.22 348.88C102.98 350.05 102.74 351.31 102.51 352.7C102.11 355.15 101.69 357.96 101.44 360.96C101.37 361.77 101.33 362.64 101.27 363.49C101.63 362.08 102.2 360.16 102.27 359.98C103.61 356.65 108.27 351.04 112.27 351.38C112.94 351.46 113.58 351.67 114.16 352.01C114.73 352.35 115.23 352.81 115.62 353.35C116.01 353.9 116.28 354.52 116.42 355.17C116.55 355.83 116.54 356.51 116.4 357.16C115.88 359.96 113.24 362.1 110.73 363.36C108.22 364.62 102.37 364.96 101.09 364.96C101 366.79 100.94 368.79 101 370.79C101.04 371.71 101.1 372.62 101.19 373.54C101.27 374.45 101.37 375.36 101.5 376.27C101.62 377.18 101.76 378.09 101.93 378.99C102.09 379.9 102.28 380.8 102.48 381.69L102.71 381.69C102.91 380.31 103.4 377.54 103.47 377.31C104.47 373.85 108.47 367.77 112.47 367.66C113.14 367.66 113.8 367.8 114.41 368.08C115.03 368.35 115.57 368.75 116.02 369.25C116.47 369.75 116.81 370.33 117.01 370.97C117.21 371.61 117.28 372.28 117.21 372.95C116.95 375.8 114.47 378.28 112.21 379.74C109.58 381.43 102.83 382.43 102.58 382.43C102.78 383.32 103 384.2 103.23 385.08C103.46 385.96 103.7 386.84 103.96 387.71C104.21 388.58 104.49 389.45 104.77 390.31C105.06 391.18 105.36 392.04 105.67 392.89C106.57 395.42 107.6 397.95 108.67 400.48C108.78 399.53 109.42 395.84 109.5 395.58C110.5 392.12 114.5 386.04 118.5 385.93C119.17 385.93 119.83 386.07 120.44 386.35C121.06 386.62 121.6 387.02 122.05 387.52C122.5 388.02 122.84 388.6 123.04 389.24C123.24 389.88 123.31 390.55 123.24 391.22C122.98 394.07 120.5 396.55 118.24 398.01C115.66 399.69 109.21 400.61 108.66 400.69C109.12 401.83 109.62 402.98 110.12 404.13C111.72 407.87 113.35 411.62 114.84 415.36C115.36 416.66 115.82 417.96 116.29 419.26C116.51 417.84 116.96 415.28 117.02 415.06C118.02 411.61 122.02 405.52 126.02 405.41C126.69 405.41 127.35 405.55 127.97 405.83C128.58 406.1 129.13 406.5 129.57 407C130.02 407.5 130.36 408.09 130.57 408.73C130.77 409.37 130.84 410.04 130.77 410.71C130.51 413.55 128.01 416.02 125.77 417.49C123.53 418.96 118.07 419.88 116.53 420.12C117.3 422.28 118.01 424.45 118.6 426.61C118.84 427.55 119.12 428.49 119.32 429.41C119.52 430.33 119.71 431.24 119.91 432.14C120.24 434.01 120.56 435.75 120.83 437.5C120.97 438.39 121.08 439.23 121.21 440.09C121.21 438.62 121.29 436.3 121.29 436.09C121.77 432.52 124.77 425.9 128.77 425.18C129.43 425.08 130.11 425.12 130.76 425.3C131.4 425.48 132 425.79 132.52 426.22C133.04 426.65 133.46 427.18 133.76 427.78C134.06 428.37 134.23 429.03 134.26 429.7C134.48 432.54 132.39 435.37 130.39 437.16C128.18 439.12 122.13 441.01 121.39 441.24C121.68 443.34 121.95 445.41 122.17 447.34C122.65 451.39 122.96 455 123.17 458L120.55 458C120.4 455.04 120.17 451.53 119.8 447.58C119.64 445.83 119.45 443.98 119.23 442.08C118.46 442.12 112.56 442.41 109.68 441.41C109.4 441.84 109.12 442.26 108.84 442.68C108.55 443.1 108.26 443.52 107.96 443.93C107.66 444.34 107.35 444.75 107.04 445.15C106.73 445.56 106.41 445.96 106.09 446.35C107.48 447.94 108.84 449.51 110.09 451C112.23 453.55 114.13 455.91 115.76 458L112.52 458C111.24 456.31 109.81 454.52 108.24 452.52C107.15 451.14 106 449.71 104.97 448.21Z" />
	</g>
	<g id="freepik--Device--inject-2">
		<path id="Layer" class="shp2" d="M143.87 49.71C143.87 45.47 147.3 42.04 151.54 42.04L336.46 42.04C340.7 42.04 344.13 45.47 344.13 49.71L344.13 412.64C344.13 416.88 340.7 420.31 336.46 420.31L151.54 420.31C147.3 420.31 143.87 416.88 143.87 412.64L143.87 49.71Z" />
		<path id="Layer" class="shp3" d="M152.78 83.57L335.24 83.57L335.24 378.77L152.78 378.77L152.78 83.57Z" />
		<path id="Layer" class="shp4" d="M263.84 62.91L224.17 62.91C223.82 62.91 223.46 62.84 223.14 62.7C222.81 62.57 222.51 62.37 222.26 62.12C222.01 61.87 221.81 61.57 221.68 61.24C221.54 60.92 221.47 60.56 221.47 60.21L221.47 60.21C221.47 59.85 221.54 59.5 221.67 59.17C221.81 58.84 222.01 58.55 222.26 58.29C222.51 58.04 222.81 57.84 223.13 57.71C223.46 57.57 223.81 57.5 224.17 57.5L263.84 57.5C264.2 57.5 264.55 57.57 264.88 57.71C265.2 57.84 265.5 58.04 265.75 58.29C266 58.55 266.2 58.84 266.34 59.17C266.47 59.5 266.54 59.85 266.54 60.21L266.54 60.21C266.54 60.56 266.47 60.92 266.33 61.24C266.2 61.57 266 61.87 265.75 62.12C265.5 62.37 265.2 62.57 264.87 62.7C264.55 62.84 264.19 62.91 263.84 62.91L263.84 62.91Z" />
		<path id="Layer" class="shp5" d="M254.82 395.44C254.82 396.86 254.54 398.27 254 399.58C253.46 400.9 252.66 402.09 251.65 403.09C250.65 404.1 249.46 404.9 248.14 405.44C246.83 405.98 245.42 406.26 244 406.26C239.62 406.26 235.68 403.62 234 399.58C232.33 395.54 233.25 390.88 236.35 387.79C239.44 384.69 244.1 383.77 248.14 385.44C252.18 387.12 254.82 391.06 254.82 395.44L254.82 395.44Z" />
		<path id="Layer" class="shp6" d="M238.52 389.95L249.49 389.95L249.49 400.92L238.52 400.92L238.52 389.95Z" />
	</g>
	<g id="freepik--Icons--inject-2">
		<path id="Layer" class="shp0" d="M241 183C217.77 183 199 164.23 199 141C199 117.77 217.77 99 241 99C264.23 99 283 117.77 283 141C283 164.23 264.23 183 241 183Z" />
		<path id="Layer" class="shp6" d="M266.64 121.99L241.4 145.65L216.86 121.99L266.64 121.99L266.64 121.99Z" />
		<path id="Layer" class="shp6" d="M251.37 140.41L268.7 124.17L268.7 155.73L251.37 140.41L251.37 140.41Z" />
		<path id="Layer" class="shp6" d="M231.62 140.38L214.06 155.01L214.06 123.46L231.62 140.38L231.62 140.38Z" />
		<path id="Layer" class="shp6" d="M249.17 142.47L266.4 157.7L215.52 157.7L233.79 142.48L241.37 149.78L249.17 142.47L249.17 142.47Z" />
		<path id="Layer" class="shp0" d="M241 275C217.77 275 199 256.23 199 233C199 209.77 217.77 191 241 191C264.23 191 283 209.77 283 233C283 256.23 264.23 275 241 275Z" />
		<path id="Layer" class="shp6" d="M227.56 206.19C227.42 205.97 227.33 205.73 227.29 205.47C227.25 205.21 227.27 204.95 227.34 204.7C227.41 204.45 227.53 204.22 227.7 204.02C227.87 203.82 228.08 203.66 228.31 203.55C229.52 202.81 230.75 202.11 231.99 201.41C232.23 201.21 232.52 201.08 232.83 201.01C233.13 200.95 233.45 200.96 233.75 201.04C234.06 201.12 234.34 201.27 234.57 201.48C234.8 201.69 234.99 201.95 235.1 202.24L240.89 212.24C241.46 213.24 242.04 214.24 242.58 215.24C242.78 215.6 242.91 216.01 243.16 216.6C243.09 216.74 243.02 216.87 242.93 217.01C242.85 217.14 242.77 217.27 242.68 217.39C242.58 217.52 242.49 217.64 242.38 217.75C242.28 217.87 242.17 217.98 242.06 218.09C240.8 218.96 239.43 219.71 238.06 220.46C237.84 220.6 237.6 220.7 237.34 220.74C237.08 220.78 236.82 220.77 236.57 220.7C236.32 220.63 236.08 220.51 235.88 220.35C235.68 220.19 235.51 219.98 235.39 219.75C232.77 215.25 230.16 210.73 227.56 206.19Z" />
		<path id="Layer" class="shp6" d="M264.38 253C264.43 253.11 264.48 253.22 264.52 253.34C264.57 253.45 264.61 253.57 264.65 253.69C264.69 253.8 264.73 253.92 264.77 254.04C264.69 254.17 264.61 254.31 264.52 254.43C264.43 254.56 264.33 254.69 264.23 254.81C264.14 254.93 264.03 255.05 263.93 255.16C263.82 255.28 263.71 255.38 263.59 255.49C262.28 256.34 260.93 257.07 259.59 257.8C259.42 257.9 259.24 257.98 259.05 258.03C258.86 258.07 258.66 258.09 258.47 258.08C258.27 258.06 258.08 258.01 257.9 257.94C257.72 257.86 257.55 257.76 257.4 257.63L249.12 243.5C248.99 243.27 248.91 243.02 248.88 242.77C248.85 242.51 248.88 242.25 248.96 242C249.03 241.75 249.16 241.52 249.33 241.32C249.5 241.13 249.71 240.97 249.95 240.86C251.2 240.11 252.46 239.38 253.73 238.67C253.96 238.5 254.23 238.38 254.51 238.33C254.8 238.28 255.09 238.3 255.36 238.37C255.64 238.45 255.89 238.59 256.11 238.78C256.32 238.98 256.49 239.21 256.6 239.48C259.15 243.87 261.69 248.26 264.22 252.66C264.27 252.77 264.33 252.88 264.38 253Z" />
		<path id="Layer" class="shp6" d="M255.58 258.9C254.8 259.5 253.93 259.97 253 260.31C252.07 260.64 251.1 260.83 250.12 260.88C249.14 260.93 248.15 260.82 247.2 260.57C246.25 260.32 245.34 259.93 244.5 259.41C243.65 258.88 242.82 258.31 242.01 257.72C241.21 257.12 240.43 256.49 239.68 255.82C238.92 255.16 238.2 254.47 237.5 253.75C236.8 253.03 236.14 252.28 235.5 251.5C233.79 249.55 232.19 247.51 230.71 245.39C229.23 243.26 227.87 241.06 226.63 238.78C225.39 236.51 224.29 234.16 223.31 231.76C222.33 229.36 221.49 226.91 220.79 224.42C220.61 223.7 220.45 222.97 220.31 222.24C220.17 221.51 220.05 220.78 219.94 220.05C219.83 219.31 219.74 218.57 219.67 217.83C219.59 217.09 219.54 216.35 219.5 215.61C219.45 214.89 219.49 214.17 219.63 213.46C219.77 212.75 220.01 212.06 220.34 211.42C220.67 210.77 221.08 210.18 221.57 209.65C222.06 209.11 222.62 208.65 223.23 208.27C223.84 207.84 224.49 207.43 225.16 207L233.68 221.6C231.38 224 231.58 227 232.31 230C232.58 231.19 232.95 232.36 233.41 233.49C233.86 234.63 234.41 235.72 235.03 236.77C235.66 237.82 236.37 238.82 237.15 239.76C237.93 240.7 238.78 241.58 239.7 242.39C239.88 242.54 240.07 242.69 240.26 242.84C240.45 242.98 240.65 243.12 240.85 243.25C241.04 243.38 241.25 243.51 241.45 243.63C241.66 243.75 241.87 243.86 242.08 243.97C242.46 244.18 242.85 244.36 243.26 244.49C243.68 244.62 244.1 244.7 244.53 244.74C244.96 244.78 245.4 244.77 245.82 244.71C246.25 244.66 246.67 244.56 247.08 244.41L255.58 258.9Z" />
		<path id="Layer" class="shp0" d="M241 367C217.77 367 199 348.23 199 325C199 301.77 217.77 283 241 283C264.23 283 283 301.77 283 325C283 348.23 264.23 367 241 367Z" />
		<path id="Layer" class="shp6" d="M230.89 343.41C230.16 343.36 229.45 343.17 228.79 342.86C228.13 342.54 227.54 342.1 227.04 341.57C226.54 341.04 226.15 340.41 225.88 339.73C225.62 339.05 225.48 338.33 225.48 337.6L225.48 332.87L234.81 332.87L230.89 343.41Z" />
		<path id="Layer" class="shp6" d="M260.82 316.67C261.59 316.67 262.35 316.82 263.06 317.11C263.77 317.4 264.41 317.83 264.96 318.37C265.5 318.91 265.94 319.55 266.23 320.26C266.53 320.97 266.68 321.73 266.68 322.5L266.68 337.6C266.68 338.37 266.53 339.12 266.23 339.83C265.94 340.54 265.51 341.18 264.97 341.72C264.42 342.26 263.78 342.69 263.07 342.99C262.36 343.28 261.61 343.43 260.84 343.43L260 343.43L246.07 353.73L249.9 343.43L234.4 343.43L248.68 332.9L248.82 332.9C249.87 332.9 250.91 332.69 251.88 332.29C252.85 331.89 253.73 331.3 254.48 330.56C255.22 329.81 255.81 328.93 256.21 327.96C256.61 326.99 256.82 325.95 256.82 324.9L256.82 316.67L260.82 316.67L260.82 316.67Z" />
		<path id="Layer" class="shp6" d="M248.81 304C249.58 304 250.34 304.14 251.04 304.43C251.75 304.72 252.4 305.15 252.94 305.69C253.49 306.22 253.92 306.86 254.22 307.57C254.52 308.28 254.67 309.03 254.68 309.8L254.68 324.9C254.68 325.67 254.53 326.43 254.23 327.13C253.94 327.84 253.51 328.48 252.97 329.03C252.42 329.57 251.78 330 251.07 330.29C250.37 330.59 249.61 330.74 248.84 330.74L248 330.74L234.06 341L237.89 330.77L219.3 330.77C218.53 330.77 217.78 330.62 217.07 330.32C216.36 330.03 215.72 329.6 215.18 329.06C214.64 328.51 214.21 327.87 213.91 327.16C213.62 326.45 213.47 325.7 213.47 324.93L213.47 309.83C213.47 309.06 213.62 308.31 213.91 307.6C214.21 306.89 214.64 306.25 215.18 305.71C215.72 305.17 216.36 304.74 217.07 304.44C217.78 304.15 218.53 304 219.3 304L248.81 304L248.81 304Z" />
		<path id="Layer" class="shp0" d="M225.97 319.06C224.81 319.06 223.88 318.13 223.88 316.97C223.88 315.81 224.81 314.88 225.97 314.88C227.13 314.88 228.06 315.81 228.06 316.97C228.06 318.13 227.13 319.06 225.97 319.06Z" />
		<path id="Layer" class="shp0" d="M236.57 317C236.57 317.85 236.06 318.61 235.28 318.93C234.5 319.25 233.6 319.08 233 318.48C232.4 317.88 232.23 316.98 232.55 316.2C232.87 315.42 233.63 314.91 234.48 314.91C234.75 314.91 235.03 314.97 235.28 315.07C235.53 315.18 235.76 315.33 235.95 315.53C236.15 315.72 236.3 315.95 236.41 316.2C236.51 316.45 236.57 316.73 236.57 317L236.57 317Z" />
		<path id="Layer" class="shp0" d="M245.07 317C245.07 317.85 244.56 318.61 243.78 318.93C243 319.25 242.1 319.07 241.5 318.47C240.9 317.87 240.73 316.97 241.05 316.19C241.38 315.41 242.14 314.91 242.99 314.91C243.26 314.91 243.53 314.97 243.79 315.07C244.04 315.18 244.27 315.33 244.46 315.53C244.65 315.72 244.81 315.95 244.91 316.2C245.02 316.46 245.07 316.73 245.07 317L245.07 317Z" />
	</g>
	<g id="freepik--character-1--inject-2">
		<path id="Layer" class="shp3" d="M140.17 202.61L140.93 201.61L153.32 184.73C153.32 184.73 155 174.66 155.84 172.14C156.68 169.62 158.36 164.31 158.92 162.35C159.48 160.39 160.04 158.15 161.16 158.99C162.28 159.83 162.28 163.19 161.72 164.87C161.6 165.25 161.5 165.64 161.42 166.03C161.35 166.43 161.3 166.83 161.28 167.23C161.26 167.63 161.26 168.03 161.28 168.43C161.31 168.83 161.36 169.23 161.44 169.62C161.72 170.46 176.55 157.87 177.94 158.99C179.33 160.11 177.39 165.43 174.59 169.06C171.79 172.69 160.32 185.85 160.32 185.85C160.32 185.85 147.17 221.1 143.25 226.7C139.33 232.3 138.5 229.78 134.58 226.7C130.66 223.62 125.58 216.63 125.58 216.63L140.17 202.61Z" />
		<path id="Layer" class="shp3" d="M160.6 179.11C160.6 179.11 162 174.11 163.4 172.95C164.8 171.79 170.11 168.48 170.11 168.48L173.75 157.28C173.75 157.28 174.87 156.44 174.59 158.96C174.31 161.48 173.75 167.08 172.91 169.59C172.07 172.1 168.43 176.59 168.43 176.59" />
		<path id="Layer" class="shp7" d="M120.03 159.8L141.57 202.05L125.07 218.84L120.31 202.89L120.03 159.8L120.03 159.8Z" />
		<path id="Layer" class="shp8" d="M123.09 212.22L138.6 196.23L141.57 202.05L125.07 218.84L123.09 212.22L123.09 212.22Z" />
		<path id="Layer" class="shp2" d="M85.13 438.75C85.16 439.64 85.2 440.52 85.25 441.41C85.3 442.3 85.37 443.18 85.45 444.07C85.52 444.95 85.61 445.84 85.72 446.72C85.82 447.6 85.93 448.48 86.06 449.36C86.22 450.07 86.36 450.78 86.47 451.5C86.58 452.22 86.67 452.94 86.73 453.66C86.79 454.39 86.82 455.11 86.83 455.84C86.84 456.57 86.82 457.29 86.78 458.02L53.2 458.02C53.2 458.02 52.85 454.23 53.75 453.33C54.65 452.43 66.38 445.93 66.38 445.93L68.38 438L85.13 438.75Z" />
		<path id="Layer" class="shp3" d="M53.15 455.83L86.78 455.83C86.79 456.01 86.8 456.19 86.8 456.37C86.81 456.55 86.81 456.73 86.81 456.91C86.81 457.1 86.81 457.28 86.8 457.46C86.8 457.64 86.79 457.82 86.78 458L53.21 458C53.21 458 53.12 457 53.15 455.83Z" />
		<path id="Layer" class="shp3" d="M54.48 453C55.05 452.51 55.66 452.07 56.29 451.67C56.93 451.26 57.59 450.91 58.28 450.61C58.96 450.3 59.67 450.04 60.4 449.84C61.12 449.64 61.86 449.49 62.6 449.39C68.01 448.48 72.89 450.47 73.97 451.55C75.05 452.63 75.77 455.7 75.77 455.7L53.15 455.88C52.98 455.61 52.88 455.31 52.86 454.99C52.84 454.68 52.9 454.36 53.03 454.08C53.16 453.79 53.37 453.54 53.62 453.36C53.87 453.17 54.17 453.04 54.48 453L54.48 453Z" />
		<path id="Layer" class="shp3" d="M83.35 444.37C83.35 446.32 82.67 447.89 81.82 447.89C80.97 447.89 80.28 446.32 80.28 444.37C80.28 442.42 80.97 440.85 81.82 440.85C82.67 440.85 83.35 442.43 83.35 444.37Z" />
		<path id="Layer" class="shp2" d="M152.18 438L154.18 445.93C154.18 445.93 165.91 452.43 166.81 453.33C167.71 454.23 167.35 458.02 167.35 458.02L133.78 458.02C133.74 457.29 133.72 456.57 133.73 455.84C133.73 455.11 133.77 454.39 133.83 453.66C133.89 452.94 133.97 452.22 134.09 451.5C134.2 450.78 134.34 450.07 134.5 449.36C134.63 448.48 134.74 447.6 134.84 446.72C134.94 445.84 135.03 444.95 135.11 444.07C135.18 443.18 135.25 442.3 135.3 441.41C135.35 440.52 135.39 439.64 135.42 438.75L152.18 438Z" />
		<path id="Layer" class="shp3" d="M167.34 458L133.78 458C133.77 457.82 133.75 457.64 133.74 457.46C133.73 457.28 133.73 457.1 133.72 456.92C133.72 456.73 133.71 456.55 133.71 456.37C133.71 456.19 133.72 456.01 133.72 455.83L167.41 455.83C167.41 456.01 167.42 456.19 167.41 456.37C167.41 456.55 167.41 456.74 167.4 456.92C167.4 457.1 167.39 457.28 167.38 457.46C167.37 457.64 167.36 457.82 167.34 458Z" />
		<path id="Layer" class="shp3" d="M166.94 453.36C167.19 453.54 167.4 453.79 167.53 454.08C167.66 454.36 167.72 454.68 167.7 454.99C167.68 455.31 167.58 455.61 167.41 455.88L144.78 455.7C144.78 455.7 145.51 452.63 146.59 451.55C147.67 450.47 152.55 448.48 157.96 449.39C158.7 449.49 159.44 449.64 160.16 449.84C160.89 450.05 161.59 450.3 162.28 450.61C162.97 450.91 163.63 451.27 164.27 451.67C164.9 452.07 165.51 452.51 166.08 453C166.39 453.04 166.69 453.17 166.94 453.36Z" />
		<path id="Layer" class="shp3" d="M138.74 440.85C139.59 440.85 140.27 442.42 140.27 444.37C140.27 446.32 139.59 447.89 138.74 447.89C137.89 447.89 137.2 446.32 137.2 444.37C137.2 442.43 137.89 440.85 138.74 440.85Z" />
		<path id="Layer" class="shp3" d="M68 269.66L133.46 263.6L144.72 344.14L152.18 437.98L135.42 438.73L104.13 298.7L101.89 299.45L85.13 438.73L68.38 437.98L66.89 287.16L68 269.66L68 269.66Z" />
		<path id="Layer" class="shp9" d="M107.43 272.67L106.84 281.38L103.36 287.18L103.36 274.41" />
		<path id="Layer" class="shp7" d="M84.99 157.47C87.53 157.19 119.47 157.75 119.99 159.71C120.51 161.67 124.99 212.31 124.99 212.31L133.38 263.51C133.38 263.51 124.71 266.04 106.8 270.23C88.89 274.42 67.35 271.35 67.35 271.35C67.35 271.35 66.23 248.99 66.23 245.35C66.23 241.71 54.48 205.9 54.48 205.9C54.48 205.9 49.44 226.28 44.13 228.28C43.01 228.69 41.82 228.89 40.63 228.87C39.43 228.84 38.25 228.59 37.15 228.13C36.05 227.67 35.04 227.01 34.18 226.18C33.32 225.35 32.63 224.37 32.13 223.28C30.5 219.37 40.57 177.65 41.13 176C41.69 174.35 79.46 157.84 79.46 157.84C79.46 157.84 82.45 157.75 84.99 157.47Z" />
		<path id="Layer" class="shp8" d="M44.18 228.36C43.06 228.77 41.87 228.97 40.68 228.95C39.48 228.92 38.3 228.67 37.2 228.21C36.1 227.75 35.09 227.09 34.23 226.26C33.37 225.43 32.68 224.45 32.18 223.36C31.56 221.93 32.53 215.4 34.03 207.63C36.87 205.91 41.02 204.34 44.14 207.11C44.91 207.86 45.63 208.66 46.3 209.5C46.97 210.34 47.59 211.22 48.15 212.14C48.72 213.06 49.22 214.01 49.66 214.99C50.11 215.97 50.49 216.97 50.81 218C49 222.8 46.61 227.46 44.18 228.36Z" />
		<path id="Layer" class="shp6" d="M60.08 223.24L124.82 209.64C124.97 211.45 125.07 212.45 125.07 212.45L125.58 215.61L61.87 229C61.28 227 60.68 225.1 60.08 223.24Z" />
		<path id="Layer" class="shp8" d="M106.88 270.34C88.97 274.53 67.43 271.46 67.43 271.46C67.43 271.46 66.31 249.09 66.31 245.46C66.22 244.85 66.11 244.24 66 243.64C65.88 243.03 65.75 242.43 65.61 241.83C65.47 241.22 65.32 240.63 65.15 240.03C64.99 239.44 64.81 238.85 64.62 238.26L127.17 225.26L133.46 263.6C133.46 263.6 124.79 266.15 106.88 270.34Z" />
		<path id="Layer" class="shp8" d="M102.22 157.78C102.34 158.11 102.45 158.43 102.56 158.76C102.67 159.09 102.77 159.43 102.87 159.76C102.97 160.09 103.06 160.43 103.14 160.77C103.23 161.1 103.31 161.44 103.38 161.78C104 164.68 97 198.35 97 198.35L64.3 164.59C72.38 160.94 79.46 157.84 79.46 157.84C79.46 157.84 82.54 157.84 85.06 157.56C86.26 157.43 94.19 157.49 102.22 157.78Z" />
		<path id="Layer" class="shp3" d="M95.69 148.05C95.69 148.05 97.37 162.6 98.21 165.4C99.05 168.2 93.45 187.78 93.45 187.78C93.45 187.78 77.22 171.27 75.26 166.52C73.3 161.77 68.83 145.25 68.83 145.25C68.83 145.25 83.1 152.53 95.69 148.05Z" />
		<path id="Layer" class="shp2" d="M95.7 148.05C95.7 148.05 95.99 150.56 96.39 153.69C96.11 154.24 95.76 154.75 95.36 155.22C94.96 155.69 94.51 156.11 94.01 156.48C93.51 156.84 92.97 157.14 92.4 157.38C91.83 157.62 91.24 157.79 90.63 157.89C89.18 158.07 87.71 158.14 86.25 158.1C84.79 158.06 83.33 157.91 81.89 157.65C80.45 157.38 79.03 157.01 77.65 156.53C76.27 156.05 74.92 155.46 73.63 154.78C72.63 154.28 71.81 153.85 71.13 153.47C69.83 149.02 68.83 145.25 68.83 145.25C68.83 145.25 83.1 152.53 95.7 148.05Z" />
		<path id="Layer" class="shp3" d="M88.5 111.33C88.5 111.33 92.74 119.82 95.58 123.5C98.42 127.18 102.94 135.4 100.96 140.21C98.98 145.02 97.68 153.21 91.33 154.09C89.88 154.27 88.41 154.34 86.95 154.3C85.49 154.26 84.03 154.1 82.59 153.84C81.15 153.57 79.73 153.2 78.35 152.72C76.97 152.24 75.62 151.65 74.33 150.97C69.23 148.42 68.67 147.57 68.67 147.57C68.67 147.57 64.42 147.57 61.87 145.57C59.32 143.57 54.23 137.36 55.64 131.98C57.05 126.6 60.46 126.03 60.46 126.03C60.46 126.03 53.38 123.2 57.91 116.12C62.44 109.04 72.06 106.5 76.6 106.5C81.14 106.5 88.5 111.33 88.5 111.33Z" />
		<path id="Layer" class="shp10" d="M87.08 120.67C87.24 120.93 87.42 121.17 87.61 121.41C87.8 121.65 88 121.87 88.21 122.09C88.43 122.3 88.65 122.5 88.89 122.69C89.13 122.88 89.37 123.06 89.63 123.22C91.63 124.64 94.44 123.79 93.63 126.34C92.82 128.89 90.8 129.73 89.1 129.45" />
		<path id="Layer" class="shp10" d="M93.88 132.57C93.88 132.57 88.5 135.68 84.82 135.4C84.34 135.39 83.87 135.34 83.4 135.27C82.93 135.19 82.46 135.08 82.01 134.93C81.55 134.79 81.11 134.61 80.68 134.41C80.25 134.2 79.84 133.97 79.44 133.7" />
		<path id="Layer" class="shp2" d="M82 135.4C82.7 135.46 83.39 135.47 84.09 135.45C84.79 135.43 85.48 135.37 86.17 135.27C86.86 135.17 87.55 135.03 88.22 134.85C88.9 134.68 89.56 134.46 90.21 134.21C90.11 134.79 89.95 135.35 89.75 135.9C89.55 136.46 89.31 136.99 89.02 137.5C88.73 138.01 88.4 138.49 88.03 138.95C87.66 139.4 87.25 139.82 86.81 140.21C84 142.48 82 135.4 82 135.4L82 135.4Z" />
		<path id="Layer" class="shp6" d="M81.71 123.13C82.33 124.13 82.35 125.22 81.71 125.6C81.07 125.98 80.11 125.5 79.48 124.52C78.85 123.54 78.84 122.43 79.48 122.04C80.12 121.65 81.08 122.14 81.71 123.13Z" />
		<path id="Layer" class="shp6" d="M90.75 118.85C91.37 119.85 91.39 120.95 90.75 121.33C90.11 121.71 89.15 121.23 88.52 120.24C87.89 119.25 87.88 118.15 88.52 117.77C89.16 117.39 90.12 117.87 90.75 118.85Z" />
		<path id="Layer" class="shp10" d="M75.77 122.28C75.77 122.28 76.59 118.5 79.55 118" />
		<path id="Layer" class="shp10" d="M85.47 116.36C85.47 116.36 87.12 113.24 89.75 114.55" />
		<path id="Layer" class="shp2" d="M68.18 125.77C69.31 128.32 67.62 131.15 67.9 132C68.18 132.85 69.61 133.69 71.01 135.11C72.41 136.53 69.86 138.79 69.01 138.79C68.16 138.79 63.36 136.82 60.52 137.1C57.68 137.38 59.1 142.76 59.1 142.76C59.1 142.76 49.76 136.81 46.36 129.45C42.96 122.09 47.54 120.11 49.47 113.88C51.4 107.65 67.26 96.89 75.47 95.19C83.68 93.49 84.53 100.57 84.53 100.57L87.93 100.57C90.2 100.57 97.56 102.54 95.86 107.36C94.16 112.18 78.3 111.61 78.3 111.61C78.3 111.61 82.56 113.87 81.14 116.99C79.72 120.11 61.31 120.11 61.31 120.11C61.31 120.11 67.05 123.22 68.18 125.77Z" />
		<path id="Layer" class="shp11" d="M54.36 137.97C53.66 136.9 53.95 135.47 55.01 134.76L61.57 130.4C62.63 129.7 64.07 129.99 64.77 131.05L77.7 150.5C78.41 151.57 78.12 153 77.06 153.71L70.5 158.07C69.43 158.77 68 158.48 67.29 157.42L54.36 137.97Z" />
		<path id="Layer" class="shp12" d="M57.92 154.11C57.92 154.11 56.61 150.76 55.31 148.33C54.01 145.9 54 144.79 54.93 144.79C55.42 144.88 55.89 145.04 56.34 145.27C56.78 145.5 57.19 145.79 57.55 146.14C57.91 146.48 58.22 146.88 58.46 147.31C58.71 147.75 58.89 148.21 59 148.7C59.11 149.2 59.2 149.71 59.27 150.22C59.35 150.74 59.4 151.25 59.43 151.77C59.46 152.28 59.47 152.8 59.46 153.31C59.45 153.83 59.42 154.35 59.37 154.86L57.92 154.11Z" />
		<path id="Layer" class="shp12" d="M69.11 167C69.11 167 58.48 156.37 58.11 155.44C57.74 154.51 58.16 142.44 58.27 138.97C58.28 138.85 58.31 138.73 58.36 138.62C58.4 138.51 58.47 138.41 58.55 138.32C58.63 138.23 58.73 138.15 58.83 138.09C58.94 138.03 59.05 137.99 59.17 137.97L59.17 137.97C59.32 137.94 59.48 137.95 59.62 137.99C59.77 138.03 59.91 138.09 60.03 138.19C60.15 138.28 60.25 138.4 60.32 138.53C60.39 138.67 60.44 138.82 60.45 138.97L61.29 148.77L63.72 136.41C63.74 136.29 63.79 136.17 63.85 136.06C63.92 135.95 64 135.85 64.1 135.77C64.2 135.7 64.31 135.63 64.43 135.59C64.55 135.55 64.67 135.53 64.8 135.53L64.8 135.53C64.95 135.53 65.09 135.56 65.23 135.62C65.37 135.68 65.49 135.77 65.59 135.87C65.69 135.98 65.77 136.11 65.82 136.25C65.87 136.38 65.9 136.53 65.89 136.68L65.2 150.45L68.27 138.7C68.31 138.55 68.37 138.42 68.46 138.3C68.55 138.18 68.67 138.08 68.8 138C68.93 137.92 69.07 137.88 69.22 137.86C69.37 137.84 69.52 137.85 69.67 137.89L69.67 137.89C69.79 137.92 69.9 137.98 70.01 138.05C70.11 138.12 70.2 138.2 70.27 138.3C70.35 138.4 70.41 138.52 70.44 138.63C70.48 138.75 70.5 138.88 70.5 139L69.11 151.65L71.72 153.89L71.72 149.41L74.85 144.15C74.91 144.05 74.98 143.97 75.07 143.9C75.15 143.83 75.25 143.78 75.36 143.75C75.46 143.72 75.57 143.71 75.68 143.72C75.79 143.73 75.9 143.76 76 143.81L76 143.81C76.1 143.86 76.19 143.93 76.26 144.02C76.34 144.1 76.4 144.2 76.43 144.3C76.47 144.41 76.49 144.52 76.48 144.63C76.48 144.75 76.46 144.86 76.41 144.96L74.33 149.6C74.33 149.6 78.44 166.38 78.62 166.94C78.8 167.5 77.88 170.49 77.32 171.61C76.76 172.73 51.76 225.7 50.32 227.75C48.88 229.8 38.76 232.97 34.32 228.12C29.88 223.27 31.32 218.42 33.76 212.83C36.2 207.24 69.11 167 69.11 167Z" />
		<path id="Layer" class="shp9" d="M72.84 280.46L87 288.65" />
		<path id="Layer" class="shp9" d="M130.19 274.87L121.63 286.04" />
	</g>
</svg>